<mxfile host="app.diagrams.net" modified="2024-02-27T14:04:09.952Z" agent="Mozilla/5.0 (Macintosh; Intel Mac OS X 10_15_7) AppleWebKit/537.36 (KHTML, like Gecko) Chrome/121.0.0.0 Safari/537.36 Edg/121.0.0.0" version="23.1.7" etag="95IYN9TjpPQ5RJjVdYCb" type="github">
  <diagram name="Page-1" id="BR88uO2bneSfWu2XzS_m">
    <mxGraphModel>
      <root>
        <mxCell id="0" />
        <mxCell id="1" parent="0" />
      </root>
    </mxGraphModel>
  </diagram>
</mxfile>
